<svg width="105" height="41" viewBox="0 0 105 41" fill="none" xmlns="http://www.w3.org/2000/svg">
<path d="M48.0561 19.2259C48.0561 18.8886 47.9895 18.5723 47.8563 18.2771C47.7378 17.9679 47.5602 17.7008 47.3233 17.4759C47.0864 17.251 46.8051 17.0753 46.4793 16.9488C46.1684 16.8082 45.8279 16.738 45.4578 16.738C45.1024 16.738 44.7693 16.8012 44.4584 16.9277C44.1475 17.0542 43.8736 17.2299 43.6367 17.4548C43.4146 17.6797 43.2295 17.9468 43.0815 18.256C42.9482 18.5512 42.8816 18.8675 42.8816 19.2048C42.8816 19.5422 42.9482 19.8584 43.0815 20.1536C43.2147 20.4488 43.3998 20.7088 43.6367 20.9337C43.8736 21.1446 44.1475 21.3203 44.4584 21.4608C44.7841 21.5874 45.1246 21.6506 45.48 21.6506C45.8353 21.6506 46.1684 21.5874 46.4793 21.4608C46.7903 21.3343 47.0568 21.1586 47.2788 20.9337C47.5157 20.7088 47.7008 20.4488 47.8341 20.1536C47.9821 19.8584 48.0561 19.5492 48.0561 19.2259ZM42.9926 30H38.9729V13.7861H42.9926V14.988C43.8513 13.9618 45.021 13.4488 46.5016 13.4488C47.3159 13.4488 48.0709 13.6034 48.7668 13.9127C49.4775 14.2078 50.0919 14.6155 50.6101 15.1355C51.1283 15.6556 51.5281 16.2671 51.8094 16.9699C52.1055 17.6727 52.2535 18.4247 52.2535 19.2259C52.2535 20.0271 52.1055 20.7721 51.8094 21.4608C51.5281 22.1496 51.1283 22.754 50.6101 23.2741C50.1067 23.7942 49.5071 24.2018 48.8112 24.497C48.1154 24.7922 47.3603 24.9398 46.546 24.9398C45.1246 24.9398 43.9402 24.4759 42.9926 23.5482V30ZM52.9902 24.6024H56.7878V9H52.9902V24.6024ZM61.7163 19.1627C61.7163 19.5141 61.783 19.8444 61.9162 20.1536C62.0495 20.4488 62.2271 20.7088 62.4492 20.9337C62.6861 21.1586 62.96 21.3343 63.2709 21.4608C63.5967 21.5874 63.9446 21.6506 64.3147 21.6506C64.6701 21.6506 65.0032 21.5874 65.3141 21.4608C65.6398 21.3343 65.9137 21.1586 66.1358 20.9337C66.3727 20.7088 66.5577 20.4488 66.691 20.1536C66.839 19.8584 66.9131 19.5422 66.9131 19.2048C66.9131 18.8675 66.839 18.5512 66.691 18.256C66.5577 17.9468 66.3727 17.6797 66.1358 17.4548C65.9137 17.2299 65.6398 17.0542 65.3141 16.9277C65.0032 16.8012 64.6701 16.738 64.3147 16.738C63.9446 16.738 63.5967 16.8012 63.2709 16.9277C62.96 17.0542 62.6861 17.2299 62.4492 17.4548C62.2271 17.6797 62.0495 17.9398 61.9162 18.2349C61.783 18.5161 61.7163 18.8253 61.7163 19.1627ZM66.7798 13.7861H70.8217V24.6024H66.7798V23.4006C65.9211 24.4267 64.7589 24.9398 63.2931 24.9398C62.464 24.9398 61.7015 24.7992 61.0057 24.5181C60.3098 24.2229 59.7028 23.8153 59.1846 23.2952C58.6664 22.7751 58.2592 22.1637 57.9631 21.4608C57.6818 20.758 57.5412 19.992 57.5412 19.1627C57.5412 18.3896 57.6818 17.6586 57.9631 16.9699C58.2444 16.2671 58.6368 15.6556 59.1402 15.1355C59.6436 14.6155 60.2432 14.2078 60.9391 13.9127C61.6349 13.6034 62.4048 13.4488 63.2487 13.4488C64.6701 13.4488 65.8471 13.9197 66.7798 14.8614V13.7861ZM72.0025 13.7861H76.0222V15.1566C76.57 14.5241 77.1252 14.1024 77.6878 13.8916C78.2504 13.6667 78.9093 13.5542 79.6644 13.5542C80.4639 13.5542 81.1449 13.6807 81.7076 13.9337C82.285 14.1727 82.7736 14.5171 83.1733 14.9669C83.499 15.3323 83.7211 15.74 83.8396 16.1898C83.958 16.6396 84.0172 17.1526 84.0172 17.7289V24.6024H79.9975V19.1416C79.9975 18.6074 79.9531 18.1787 79.8643 17.8554C79.7902 17.5181 79.6496 17.251 79.4423 17.0542C79.2646 16.8855 79.0648 16.7661 78.8427 16.6958C78.6206 16.6255 78.3837 16.5904 78.132 16.5904C77.4509 16.5904 76.9253 16.7871 76.5552 17.1807C76.1999 17.5602 76.0222 18.1084 76.0222 18.8253V24.6024H72.0025V13.7861ZM93.5243 17.6235C93.391 17.0894 93.1171 16.6606 92.7026 16.3373C92.288 16.0141 91.7846 15.8524 91.1924 15.8524C90.5706 15.8524 90.0598 16.007 89.66 16.3163C89.2751 16.6255 89.0308 17.0612 88.9271 17.6235H93.5243ZM88.8161 19.8373C88.8161 21.4819 89.6304 22.3042 91.259 22.3042C92.1325 22.3042 92.7914 21.9669 93.2356 21.2922H97.122C96.3373 23.7661 94.3756 25.003 91.2368 25.003C90.2744 25.003 89.3935 24.8695 88.594 24.6024C87.7945 24.3213 87.106 23.9277 86.5286 23.4217C85.966 22.9157 85.5293 22.3112 85.2183 21.6084C84.9074 20.9056 84.752 20.1185 84.752 19.247C84.752 18.3474 84.9 17.5392 85.1961 16.8223C85.4922 16.0914 85.9142 15.4729 86.462 14.9669C87.0098 14.4608 87.6687 14.0743 88.4386 13.8072C89.2233 13.5261 90.1042 13.3855 91.0814 13.3855C92.0437 13.3855 92.9099 13.5261 93.6797 13.8072C94.4496 14.0743 95.1011 14.4679 95.6341 14.988C96.1671 15.508 96.5742 16.1476 96.8555 16.9066C97.1368 17.6516 97.2775 18.495 97.2775 19.4367V19.8373H88.8161ZM98.6199 20.512C98.6199 23.5693 100.419 24.6024 102.995 24.6024H104.927V21.5452H103.572C102.728 21.5452 102.418 21.25 102.418 20.5542V15.8313H104.905V12.8373H102.418V9.96988H98.6199V12.8373H97.1097V15.8313H98.6199V20.512Z" fill="black"/>
<path d="M52.7754 33.987V34.6371H50.0508V33.987H52.7754ZM50.8668 38.9805V33.2978C50.8668 33.0117 50.9348 32.7733 51.0707 32.5825C51.2067 32.3919 51.3833 32.2488 51.6005 32.1535C51.8177 32.0581 52.0468 32.0104 52.2882 32.0104C52.4789 32.0104 52.6346 32.0256 52.755 32.0559C52.8764 32.0863 52.9663 32.1145 53.0256 32.1405L52.8013 32.8036C52.7624 32.7906 52.7068 32.7743 52.6373 32.7548C52.5688 32.7353 52.4789 32.7256 52.3668 32.7256C52.1105 32.7256 51.9252 32.7895 51.811 32.9174C51.6992 33.0453 51.6432 33.2327 51.6432 33.4798V38.9805H50.8668ZM55.3382 39.0845C54.8814 39.0845 54.4812 38.9772 54.1365 38.7626C53.7946 38.5481 53.5268 38.2479 53.3341 37.8621C53.1432 37.4763 53.0478 37.0255 53.0478 36.5097C53.0478 35.9895 53.1432 35.5355 53.3341 35.1476C53.5268 34.7596 53.7946 34.4583 54.1365 34.2438C54.4812 34.0293 54.8814 33.922 55.3382 33.922C55.7941 33.922 56.1934 34.0293 56.5353 34.2438C56.88 34.4583 57.1478 34.7596 57.3386 35.1476C57.5314 35.5355 57.6277 35.9895 57.6277 36.5097C57.6277 37.0255 57.5314 37.4763 57.3386 37.8621C57.1478 38.2479 56.88 38.5481 56.5353 38.7626C56.1934 38.9772 55.7941 39.0845 55.3382 39.0845ZM55.3382 38.3953C55.6848 38.3953 55.9692 38.3075 56.1934 38.1319C56.4167 37.9563 56.5826 37.7255 56.6901 37.4395C56.7975 37.1534 56.8513 36.8435 56.8513 36.5097C56.8513 36.1759 56.7975 35.8649 56.6901 35.5767C56.5826 35.2885 56.4167 35.0555 56.1934 34.8777C55.9692 34.7 55.6848 34.6111 55.3382 34.6111C54.9917 34.6111 54.7063 34.7 54.4821 34.8777C54.2588 35.0555 54.0929 35.2885 53.9855 35.5767C53.878 35.8649 53.8242 36.1759 53.8242 36.5097C53.8242 36.8435 53.878 37.1534 53.9855 37.4395C54.0929 37.7255 54.2588 37.9563 54.4821 38.1319C54.7063 38.3075 54.9917 38.3953 55.3382 38.3953ZM58.4422 38.9805V33.987H59.1927V34.7412H59.2455C59.3372 34.4941 59.504 34.2936 59.7458 34.1397C59.9867 33.9859 60.2591 33.909 60.5612 33.909C60.6186 33.909 60.69 33.9101 60.7752 33.9122C60.8614 33.9144 60.9253 33.9177 60.9698 33.922V34.7022C60.9429 34.6957 60.8827 34.6859 60.7882 34.6729C60.6965 34.6577 60.5992 34.6501 60.4954 34.6501C60.2499 34.6501 60.0303 34.7011 59.8375 34.8029C59.6467 34.9026 59.4956 35.0414 59.3835 35.2191C59.2742 35.3947 59.2195 35.5951 59.2195 35.8205V38.9805H58.4422ZM61.5192 38.9805V33.987H62.2697V34.7672H62.3355C62.4402 34.5006 62.6107 34.2936 62.8451 34.1462C63.0805 33.9968 63.3621 33.922 63.6911 33.922C64.0246 33.922 64.3017 33.9968 64.5231 34.1462C64.7473 34.2936 64.9215 34.5006 65.0466 34.7672H65.0994C65.2282 34.5093 65.4228 34.3044 65.6813 34.1527C65.9407 33.9989 66.2511 33.922 66.6125 33.922C67.0646 33.922 67.4343 34.0617 67.7215 34.3413C68.0088 34.6187 68.1524 35.0511 68.1524 35.6385V38.9805H67.3759V35.6385C67.3759 35.27 67.274 35.0067 67.0702 34.8485C66.8663 34.6902 66.6264 34.6111 66.3493 34.6111C65.9945 34.6111 65.7193 34.7173 65.5238 34.9297C65.3283 35.14 65.231 35.4066 65.231 35.7295V38.9805H64.4416V35.5605C64.4416 35.2765 64.348 35.0479 64.1617 34.8745C63.9746 34.6989 63.7346 34.6111 63.4409 34.6111C63.2389 34.6111 63.0508 34.6642 62.8748 34.7704C62.7015 34.8766 62.5616 35.024 62.4541 35.2126C62.3485 35.399 62.2957 35.6146 62.2957 35.8595V38.9805H61.5192ZM71.3203 39.0845C70.8338 39.0845 70.4141 38.9783 70.0602 38.7659C69.7099 38.5513 69.4384 38.2522 69.2476 37.8686C69.0595 37.4828 68.965 37.0342 68.965 36.5227C68.965 36.0112 69.0595 35.5605 69.2476 35.1703C69.4384 34.778 69.7044 34.4724 70.0444 34.2535C70.3863 34.0325 70.7856 33.922 71.2415 33.922C71.5046 33.922 71.765 33.9653 72.0217 34.052C72.2783 34.1387 72.5118 34.2795 72.7221 34.4746C72.9334 34.6675 73.1011 34.9232 73.2262 35.2419C73.3513 35.5605 73.4133 35.9527 73.4133 36.4187V36.7438H69.5172V36.0805H72.6239C72.6239 35.7988 72.5665 35.5475 72.4525 35.3264C72.3404 35.1053 72.181 34.9308 71.9725 34.8029C71.7659 34.6751 71.5222 34.6111 71.2415 34.6111C70.932 34.6111 70.6652 34.687 70.4391 34.8387C70.2149 34.9883 70.0426 35.1833 69.9221 35.4239C69.8016 35.6645 69.7414 35.9223 69.7414 36.1976V36.6397C69.7414 37.0169 69.8072 37.3366 69.9388 37.5987C70.0722 37.8588 70.2575 38.0571 70.4947 38.1937C70.7319 38.3281 71.0071 38.3953 71.3203 38.3953C71.525 38.3953 71.7094 38.3671 71.8734 38.3107C72.0402 38.2522 72.1838 38.1655 72.3043 38.0506C72.4247 37.9336 72.5183 37.7884 72.5841 37.615L73.3346 37.8231C73.2558 38.0745 73.1224 38.2956 72.9362 38.4863C72.7499 38.6749 72.5192 38.8222 72.245 38.9284C71.9707 39.0325 71.6631 39.0845 71.3203 39.0845ZM74.2241 38.9805V33.987H74.9746V34.7412H75.0265C75.1191 34.4941 75.2859 34.2936 75.5268 34.1397C75.7686 33.9859 76.0401 33.909 76.3431 33.909C76.3996 33.909 76.4709 33.9101 76.5571 33.9122C76.6424 33.9144 76.7072 33.9177 76.7508 33.922V34.7022C76.7248 34.6957 76.6646 34.6859 76.5701 34.6729C76.4774 34.6577 76.3801 34.6501 76.2773 34.6501C76.0318 34.6501 75.8122 34.7011 75.6194 34.8029C75.4286 34.9026 75.2766 35.0414 75.1654 35.2191C75.0552 35.3947 75.0005 35.5951 75.0005 35.8205V38.9805H74.2241ZM78.0776 32.3225V38.9805H77.3011V32.3225H78.0776ZM79.6286 40.8529C79.4971 40.8529 79.3803 40.8421 79.2765 40.8204C79.1737 40.8009 79.1023 40.7814 79.0634 40.7619L79.2608 40.0857C79.4489 40.1334 79.6157 40.1508 79.7602 40.1378C79.9057 40.1248 80.0335 40.0608 80.1456 39.9459C80.2596 39.8332 80.3634 39.6501 80.4579 39.3965L80.6033 39.0065L78.7336 33.987H79.5767L80.9712 37.9661H81.024L82.4194 33.987H83.2616L81.1167 39.7086C81.0194 39.9665 80.8998 40.18 80.7572 40.3491C80.6154 40.5203 80.4495 40.6471 80.2605 40.7294C80.0743 40.8117 79.864 40.8529 79.6286 40.8529Z" fill="black"/>
<path d="M88.2344 38.9798H85.9514V32.3218H88.2808C88.9497 32.3218 89.5242 32.4551 90.0051 32.7217C90.4878 32.986 90.8584 33.3664 91.1169 33.8628C91.3754 34.3591 91.5052 34.9529 91.5052 35.6443C91.5052 36.3378 91.3745 36.9338 91.1142 37.4323C90.8547 37.9307 90.4813 38.3133 89.9921 38.5799C89.5047 38.8465 88.9192 38.9798 88.2344 38.9798ZM87.1717 37.9361H88.1751C88.6449 37.9361 89.0368 37.8516 89.35 37.6827C89.6641 37.5114 89.8994 37.2568 90.0579 36.9186C90.2154 36.5784 90.2941 36.1536 90.2941 35.6443C90.2941 35.1349 90.2154 34.7123 90.0579 34.3764C89.8994 34.0383 89.666 33.7858 89.3565 33.6189C89.0498 33.4499 88.6681 33.3653 88.2113 33.3653H87.1717V37.9361ZM92.2946 38.9798V32.3218H94.8213C95.3392 32.3218 95.7738 32.4172 96.124 32.6079C96.4779 32.7986 96.7439 33.0608 96.9236 33.3946C97.1062 33.7262 97.197 34.1034 97.197 34.5259C97.197 34.9529 97.1062 35.3322 96.9236 35.6638C96.742 35.9954 96.4733 36.2565 96.1175 36.4472C95.7626 36.6358 95.3244 36.7301 94.8046 36.7301H93.1303V35.7386H94.6406C94.9436 35.7386 95.191 35.6866 95.3837 35.5825C95.5773 35.4785 95.72 35.3354 95.8118 35.1534C95.9063 34.9713 95.9535 34.7622 95.9535 34.5259C95.9535 34.2898 95.9063 34.0817 95.8118 33.9018C95.72 33.7219 95.5764 33.5821 95.3809 33.4824C95.1882 33.3805 94.9389 33.3296 94.6341 33.3296H93.5148V38.9798H92.2946ZM99.025 36.0539V38.9798H97.8344V32.3218H98.9991V34.8348H99.0584C99.176 34.553 99.3595 34.3309 99.6078 34.1684C99.858 34.0037 100.176 33.9213 100.562 33.9213C100.912 33.9213 101.219 33.9939 101.479 34.1391C101.741 34.2843 101.943 34.4967 102.085 34.7762C102.23 35.0558 102.302 35.3972 102.302 35.8003V38.9798H101.112V35.9824C101.112 35.6465 101.024 35.3853 100.848 35.1989C100.674 35.0103 100.432 34.916 100.117 34.916C99.9071 34.916 99.7181 34.9616 99.5513 35.0526C99.3873 35.1414 99.2576 35.2704 99.1631 35.4395C99.0714 35.6085 99.025 35.8134 99.025 36.0539ZM103.145 38.9798V33.9863H104.337V38.9798H103.145ZM103.745 33.2776C103.556 33.2776 103.394 33.2158 103.258 33.0922C103.121 32.9665 103.054 32.816 103.054 32.6404C103.054 32.4627 103.121 32.3121 103.258 32.1885C103.394 32.0628 103.556 32 103.745 32C103.936 32 104.098 32.0628 104.231 32.1885C104.368 32.3121 104.435 32.4627 104.435 32.6404C104.435 32.816 104.368 32.9665 104.231 33.0922C104.098 33.2158 103.936 33.2776 103.745 33.2776Z" fill="#0FA958"/>
<path d="M17.9875 1C27.3688 1 34.975 8.61051 34.975 18C34.975 27.3895 27.3688 35 17.9875 35C8.60622 35 1 27.3895 1 18C1 8.61051 8.60622 1 17.9875 1Z" stroke="#0FA958" stroke-width="2"/>
<path d="M31.9779 18C31.9779 10.268 25.7142 4 17.9876 4C10.261 4 3.99731 10.268 3.99731 18C3.99731 25.732 10.261 32 17.9876 32C25.7142 32 31.9779 25.732 31.9779 18Z" fill="#0FA958"/>
<path d="M12.5587 19.7053C12.5587 20.0274 12.6155 20.3301 12.7293 20.6135C12.8431 20.8841 12.9948 21.1224 13.1844 21.3285C13.3867 21.5346 13.6206 21.6957 13.886 21.8116C14.1642 21.9275 14.4612 21.9855 14.7773 21.9855C15.0807 21.9855 15.3651 21.9275 15.6306 21.8116C15.9087 21.6957 16.1426 21.5346 16.3322 21.3285C16.5345 21.1224 16.6925 20.8841 16.8063 20.6135C16.9327 20.343 16.9959 20.0531 16.9959 19.744C16.9959 19.4348 16.9327 19.1449 16.8063 18.8744C16.6925 18.591 16.5345 18.3462 16.3322 18.1401C16.1426 17.934 15.9087 17.7729 15.6306 17.657C15.3651 17.5411 15.0807 17.4831 14.7773 17.4831C14.4612 17.4831 14.1642 17.5411 13.886 17.657C13.6206 17.7729 13.3867 17.934 13.1844 18.1401C12.9948 18.3462 12.8431 18.5845 12.7293 18.8551C12.6155 19.1127 12.5587 19.3961 12.5587 19.7053ZM16.8822 14.7778H20.3334V24.6908H16.8822V23.5894C16.1489 24.5298 15.1565 25 13.905 25C13.1971 25 12.546 24.8712 11.9518 24.6135C11.3577 24.343 10.8394 23.9694 10.3969 23.4928C9.95443 23.0161 9.60678 22.4557 9.35394 21.8116C9.11375 21.1675 8.99365 20.4654 8.99365 19.7053C8.99365 18.9968 9.11375 18.3269 9.35394 17.6957C9.59414 17.0515 9.92915 16.4911 10.359 16.0145C10.7888 15.5378 11.3008 15.1643 11.895 14.8937C12.4891 14.6103 13.1465 14.4686 13.8671 14.4686C15.0807 14.4686 16.0857 14.9002 16.8822 15.7633V14.7778ZM24.774 14.7778V24.6908H21.3417V14.7778H24.774ZM21.1141 10.971C21.1141 10.7005 21.1647 10.4493 21.2658 10.2174C21.367 9.97262 21.506 9.76006 21.683 9.57971C21.86 9.39936 22.0623 9.25765 22.2898 9.15459C22.53 9.05153 22.7829 9 23.0483 9C23.3138 9 23.5603 9.05153 23.7879 9.15459C24.0281 9.25765 24.2367 9.39936 24.4137 9.57971C24.5906 9.76006 24.7297 9.97262 24.8308 10.2174C24.932 10.4493 24.9825 10.7005 24.9825 10.971C24.9825 11.2415 24.932 11.4992 24.8308 11.744C24.7297 11.9758 24.5906 12.182 24.4137 12.3623C24.2367 12.5427 24.0281 12.6844 23.7879 12.7874C23.5603 12.8905 23.3138 12.942 23.0483 12.942C22.7829 12.942 22.53 12.8905 22.2898 12.7874C22.0623 12.6844 21.86 12.5427 21.683 12.3623C21.506 12.182 21.367 11.9758 21.2658 11.744C21.1647 11.4992 21.1141 11.2415 21.1141 10.971Z" fill="white"/>
</svg>
