<svg width="25" height="29" viewBox="0 0 25 29" fill="none" xmlns="http://www.w3.org/2000/svg">
<rect width="25" height="28.2731" rx="3.386" fill="white"/>
<rect x="0.3386" y="0.3386" width="24.3228" height="27.5959" rx="3.0474" stroke="#0FA958" stroke-opacity="0.44" stroke-width="0.677201"/>
<path d="M14.1365 6.77197V10.0451C14.1365 10.2621 14.2227 10.4703 14.3761 10.6237C14.5296 10.7772 14.7377 10.8634 14.9548 10.8634H18.2279" stroke="#0FA958" stroke-width="1.0158" stroke-linecap="round" stroke-linejoin="round"/>
<path d="M16.5914 21.5011H8.40854C7.9745 21.5011 7.55823 21.3287 7.25131 21.0218C6.9444 20.7148 6.77197 20.2986 6.77197 19.8645V8.40854C6.77197 7.9745 6.9444 7.55823 7.25131 7.25131C7.55823 6.9444 7.9745 6.77197 8.40854 6.77197H14.1365L18.228 10.8634V19.8645C18.228 20.2986 18.0555 20.7148 17.7486 21.0218C17.4417 21.3287 17.0254 21.5011 16.5914 21.5011Z" stroke="#0FA958" stroke-width="1.0158" stroke-linecap="round" stroke-linejoin="round"/>
</svg>
